<?xml version="1.0" encoding="UTF-8" standalone="no"?>
<svg
   xmlns:dc="http://purl.org/dc/elements/1.1/"
   xmlns:cc="http://creativecommons.org/ns#"
   xmlns:rdf="http://www.w3.org/1999/02/22-rdf-syntax-ns#"
   xmlns:svg="http://www.w3.org/2000/svg"
   xmlns="http://www.w3.org/2000/svg"
   version="1.1"
   id="svg2"
   viewBox="0 0 32 32"
   height="32"
   width="32">
  <path
     id="IF" fill="#890a35"
     d="m 15.410156,0 c -0.07821,0.00149951 -0.155555,0.01670377 -0.228515,0.04492187 L 7.6796875,2.9140625 C 7.1155455,3.1295506 7.1030677,3.9231325 7.6601562,4.15625 l 0.00586,0.00195 0.00586,0.00195 12.8945308,5.3886719 c 0.163007,0.067896 0.346245,0.068597 0.509766,0.00195 l 1.490234,-0.6015624 c 0.555096,-0.2242182 0.558834,-1.0087837 0.0059,-1.2382813 L 18.152344,5.875 21.824219,4.4277344 c 0.561868,-0.2208896 0.566849,-1.0142594 0.0078,-1.2421875 L 20.308594,2.5664062 C 20.14959,2.5022047 19.972005,2.5015056 19.8125,2.5644531 L 14.853516,4.5058594 12.695312,3.609375 17.146484,1.8964844 c 0.565869,-0.2178047 0.573385,-1.01571438 0.01172,-1.24414065 L 15.671875,0.04882812 C 15.588787,0.01518338 15.499786,-0.00142136 15.410156,0 Z M 5.2011719,3.9082031 c -0.0815,3.356e-4 -0.1622533,0.01556 -0.2382813,0.044922 L 3.4453125,4.5332031 C 2.8835904,4.7481541 2.8686752,5.5374171 3.421875,5.7734375 l 0.00195,0 0.00977,0.00586 0.00586,0.00195 0.00391,0 12.886719,5.4765625 c 0.163316,0.06906 0.347368,0.07046 0.511719,0.0039 l 1.517578,-0.613281 c 0.552689,-0.223647 0.558874,-1.0039491 0.0098,-1.2363291 L 5.4628906,3.9609375 C 5.3800798,3.9259549 5.2910684,3.9080197 5.2011719,3.9082031 Z" />
  <path
     id="M" fill="#f0be00"
     d="M 1.7695312,6.1660156 C 1.4001054,6.1655307 1.100203,6.4645587 1.0996094,6.8339844 l 0,18.1933596 c 1.61e-5,0.260945 0.1517452,0.498069 0.3886718,0.607422 l 1.7871094,0.820312 c 0.4432515,0.204406 0.9491219,-0.11931 0.9492188,-0.607422 l 0,-9.617187 2.796875,11.662109 c 0.04804,0.199304 0.184804,0.365581 0.3710937,0.451172 l 1.7089844,0.785156 c 0.3693484,0.169488 0.8032619,-0.02674 0.9199215,-0.416015 l 2.876954,-9.554688 0,11.283203 c 3.67e-4,0.261398 0.152935,0.498642 0.390624,0.607422 l 1.867188,0.857422 c 0.08765,0.04006 0.182924,0.06072 0.279297,0.06055 0.368664,-5.92e-4 0.667377,-0.299305 0.667969,-0.667969 l 0,-18.658203 c -1.5e-5,-0.267921 -0.159862,-0.509997 -0.40625,-0.615234 l -2.910157,-1.236329 c -0.36811,-0.157134 -0.790904,0.04194 -0.904297,0.425782 L 8.4882812,22.740234 c 0,0 -2.3877352,-10.033691 -3.5722656,-14.9999996 C 4.8669565,7.5336103 4.7227139,7.3625487 4.5273438,7.2792969 L 2.0292969,6.21875 C 1.9470918,6.1840236 1.8587702,6.1660937 1.7695312,6.1660156 Z" />
  <path
     id="L" fill="#360058"
     d="m 19.216797,11.378906 c -0.07965,0.0017 -0.158356,0.01753 -0.232422,0.04687 l -1.505859,0.609375 c -0.253722,0.101795 -0.419988,0.347714 -0.419922,0.621094 l 0,18.673828 c -4.89e-4,0.370191 0.299731,0.670413 0.669922,0.669927 0.0928,1.7e-5 0.184588,-0.01927 0.269531,-0.05664 l 12.503906,-5.496093 c 0.242679,-0.107326 0.398995,-0.34793 0.398438,-0.613282 l 0,-3.861328 c -8.89e-4,-0.480253 -0.49248,-0.803181 -0.933594,-0.613281 l -10.0625,4.347656 0,-13.660156 c -4.62e-4,-0.37641 -0.311233,-0.678353 -0.6875,-0.66797 z" />
</svg>
