<svg
   xmlns:dc="http://purl.org/dc/elements/1.1/"
   xmlns:cc="http://creativecommons.org/ns#"
   xmlns:rdf="http://www.w3.org/1999/02/22-rdf-syntax-ns#"
   xmlns:svg="http://www.w3.org/2000/svg"
   xmlns="http://www.w3.org/2000/svg"
   xmlns:sodipodi="http://sodipodi.sourceforge.net/DTD/sodipodi-0.dtd"
   xmlns:inkscape="http://www.inkscape.org/namespaces/inkscape"
   version="1.1"
   id="Capa_1"
   x="0px"
   y="0px"
   width="44.236"
   height="44.236"
   viewBox="0 0 44.236 44.236"
   xml:space="preserve"
   inkscape:version="0.91 r13725"
   sodipodi:docname="statistics.svg"><metadata
     id="metadata53"><rdf:RDF><cc:Work
         rdf:about=""><dc:format>image/svg+xml</dc:format><dc:type
           rdf:resource="http://purl.org/dc/dcmitype/StillImage" /><dc:title></dc:title></cc:Work></rdf:RDF></metadata><defs
     id="defs51" /><sodipodi:namedview
     pagecolor="#ffffff"
     bordercolor="#666666"
     borderopacity="1"
     objecttolerance="10"
     gridtolerance="10"
     guidetolerance="10"
     inkscape:pageopacity="0"
     inkscape:pageshadow="2"
     inkscape:window-width="1600"
     inkscape:window-height="837"
     id="namedview49"
     showgrid="false"
     inkscape:zoom="7.5448594"
     inkscape:cx="2.1444747"
     inkscape:cy="32.284412"
     inkscape:window-x="2992"
     inkscape:window-y="-8"
     inkscape:window-maximized="1"
     inkscape:current-layer="Capa_1" /><circle
     style="color:#000000;display:inline;overflow:visible;visibility:visible;fill:#ffffff;fill-opacity:1;fill-rule:nonzero;stroke:none;stroke-width:0.40000001;stroke-linecap:round;stroke-linejoin:round;stroke-miterlimit:4;stroke-dasharray:none;stroke-opacity:1;marker:none;enable-background:accumulate"
     id="path4181"
     cx="22.118"
     cy="22.118"
     r="22.118" /><path
     d="M 22.118,44.236 C 9.922,44.236 0,34.314 0,22.119 0,9.923 9.922,0 22.118,0 c 12.196,0 22.118,9.923 22.118,22.119 0,12.195 -9.922,22.117 -22.118,22.117 z m 0,-42.736 C 10.75,1.5 1.5,10.75 1.5,22.119 c 0,11.369 9.25,20.617 20.618,20.617 11.368,0 20.618,-9.248 20.618,-20.617 C 42.736,10.75 33.486,1.5 22.118,1.5 Z"
     id="path7"
     inkscape:connector-curvature="0" /><g
     transform="matrix(0.95782799,0,0,1.0662703,10.624064,9.3227564)"
     id="icons"><g
       id="statistics"><path
         inkscape:connector-curvature="0"
         d="m 5,12 -2,0 c -1.1,0 -2,0.9 -2,2 l 0,6 c 0,1.1 0.9,2 2,2 l 2,0 c 1.1,0 2,-0.9 2,-2 L 7,14 C 7,12.9 6.1,12 5,12 Z"
         id="path7-8" /><path
         inkscape:connector-curvature="0"
         d="M 13,2 11,2 C 9.9,2 9,2.9 9,4 l 0,16 c 0,1.1 0.9,2 2,2 l 2,0 c 1.1,0 2,-0.9 2,-2 L 15,4 C 15,2.9 14.1,2 13,2 Z"
         id="path9" /><path
         inkscape:connector-curvature="0"
         d="m 21,8 -2,0 c -1.1,0 -2,0.9 -2,2 l 0,10 c 0,1.1 0.9,2 2,2 l 2,0 c 1.1,0 2,-0.9 2,-2 L 23,10 C 23,8.9 22.1,8 21,8 Z"
         id="path11" /></g></g></svg>
