<?xml version="1.0" encoding="UTF-8" standalone="no"?>
<svg
   xmlns:dc="http://purl.org/dc/elements/1.1/"
   xmlns:cc="http://creativecommons.org/ns#"
   xmlns:rdf="http://www.w3.org/1999/02/22-rdf-syntax-ns#"
   xmlns:svg="http://www.w3.org/2000/svg"
   xmlns="http://www.w3.org/2000/svg"
   version="1.1"
   id="svg2"
   viewBox="0 0 26.944265 27.263167"
   height="7.6942716mm"
   width="7.6042705mm">
  <defs
     id="defs4" />
  <metadata
     id="metadata7">
    <rdf:RDF>
      <cc:Work
         rdf:about="">
        <dc:format>image/svg+xml</dc:format>
        <dc:type
           rdf:resource="http://purl.org/dc/dcmitype/StillImage" />
        <dc:title></dc:title>
      </cc:Work>
    </rdf:RDF>
  </metadata>
  <g
     transform="translate(-255.21698,-311.83252)"
     id="layer1">
    <g
       transform="matrix(0.6400587,0,0,0.6400587,91.863133,112.2414)"
       id="g4225">
      <path
         id="path4213"
         d="m 263.68754,354.1156 c -0.34712,-0.15262 -0.79453,-0.45806 -0.99425,-0.67874 -0.41228,-0.45556 -4.53974,-11.07862 -4.70848,-12.11846 -0.14284,-0.8802 0.55165,-2.46971 1.2906,-2.95389 0.80825,-0.52959 11.45196,-4.48559 12.07124,-4.48658 0.81388,-10e-4 2.19968,0.71667 2.66665,1.38158 0.48799,0.69484 4.45587,10.9749 4.61622,11.95978 0.14625,0.89829 -0.24785,1.98731 -0.96932,2.67852 -0.40628,0.38923 -2.0463,1.11839 -5.08256,2.2597 -6.2738,2.35829 -7.41045,2.60864 -8.8901,1.95809 z m 22.81309,-20.04572 c -0.26146,-0.10503 -2.68089,-1.74954 -5.3765,-3.65446 -5.28999,-3.7383 -5.58242,-4.04273 -5.5809,-5.81002 4.5e-4,-0.51759 0.16806,-1.18467 0.38738,-1.54172 0.40493,-0.65922 6.05395,-8.61006 6.70963,-9.44362 0.97025,-1.23348 2.81708,-1.71247 4.07421,-1.05669 0.84259,0.43953 9.46881,6.54914 9.86515,6.98709 0.18505,0.20448 0.45468,0.81379 0.59916,1.35402 0.42066,1.5728 0.0375,2.35446 -3.79781,7.74726 -2.94847,4.14584 -3.5792,4.91468 -4.30069,5.24243 -0.91503,0.41565 -1.82762,0.47781 -2.57963,0.17571 z m -29.31482,-5.11354 c -0.86982,-0.38659 -1.48933,-1.12461 -1.77658,-2.11644 -0.1664,-0.57455 -0.22231,-2.72452 -0.17729,-6.81818 0.0962,-8.7464 -0.50188,-8.18182 8.66715,-8.18182 6.76113,0 7.34938,0.0874 8.18182,1.21489 0.39943,0.54103 0.41958,0.89763 0.41958,7.42518 l 0,6.85686 -0.62937,0.66898 c -1.13633,1.20786 -1.39283,1.24748 -8.01774,1.23847 -4.56258,-0.006 -6.19201,-0.0766 -6.66757,-0.28794 z"
         style="fill:#a3b4c7" />
      <path
         id="path4211"
         d="m 263.83997,354.07842 c -0.37867,-0.18664 -0.85977,-0.58572 -1.0691,-0.88684 -0.41388,-0.59533 -4.37232,-10.79494 -4.56671,-11.76691 -0.16238,-0.8119 0.2363,-1.91934 0.93033,-2.58426 0.80943,-0.77549 10.9059,-4.59193 12.24883,-4.63003 1.04501,-0.0296 1.79303,0.3706 2.52073,1.34878 0.52893,0.711 4.57546,11.37618 4.57546,12.05926 0,0.79228 -0.5874,1.92624 -1.23216,2.37863 -0.85631,0.60083 -11.27546,4.43085 -12.03903,4.42549 -0.37392,-0.003 -0.98968,-0.15748 -1.36835,-0.34412 z m 22.50668,-20.3174 c -1.57845,-0.82889 -9.67589,-6.77248 -10.11457,-7.42417 -0.33223,-0.49355 -0.47984,-1.01884 -0.47984,-1.70752 0,-0.9082 0.15314,-1.21279 1.76136,-3.50332 5.73672,-8.17056 6.17021,-8.65674 7.71858,-8.65674 1.11188,0 1.69268,0.34044 6.87761,4.03132 4.1197,2.9326 4.538,3.28771 4.89781,4.15799 0.32967,0.79735 0.35604,1.09033 0.16278,1.80807 -0.26355,0.97875 -6.92255,10.39404 -7.81026,11.04307 -0.74916,0.54774 -2.21602,0.67007 -3.01347,0.2513 z m -29.20896,-5.13031 c -0.51229,-0.23255 -1.0661,-0.69609 -1.3104,-1.09679 -0.39993,-0.65596 -0.42317,-1.04608 -0.42392,-7.11404 -0.001,-9.09243 -0.50852,-8.57998 8.49572,-8.57998 6.7921,0 7.05498,0.0481 8.02448,1.46843 0.46421,0.68007 0.47201,0.79786 0.47124,7.11155 -7.3e-4,6.06796 -0.024,6.45808 -0.42391,7.11404 -0.24431,0.4007 -0.79812,0.86424 -1.31041,1.09679 -0.80727,0.36646 -1.41692,0.40277 -6.7614,0.40277 -5.34447,0 -5.95413,-0.0363 -6.7614,-0.40277 z"
         style="fill:#708ca8" />
      <path
         id="path4209"
         d="m 264.00747,354.0389 c -0.39834,-0.21363 -0.89875,-0.62215 -1.11204,-0.90782 -0.67026,-0.89775 -4.55578,-11.31096 -4.55578,-12.20952 0,-1.04452 0.64785,-2.08992 1.5648,-2.52504 1.76699,-0.83849 10.90006,-4.10907 11.47456,-4.10907 0.83802,0 2.01796,0.57152 2.40757,1.16615 0.70084,1.06961 4.48313,11.324 4.48236,12.15237 -10e-4,1.04714 -0.60799,2.07604 -1.49557,2.53503 -1.17287,0.60652 -11.12684,4.28631 -11.59462,4.28631 -0.24587,0 -0.77295,-0.17478 -1.17128,-0.38841 z m 21.71391,-20.81922 c -1.89173,-1.1997 -8.17967,-5.6984 -8.86379,-6.34159 -0.80558,-0.75739 -1.19628,-1.80518 -1.01673,-2.72669 0.12795,-0.65665 6.19974,-9.42324 7.37939,-10.65453 0.79694,-0.83183 1.91253,-1.11857 2.9542,-0.75934 1.02568,0.35373 9.39344,6.22852 10.29457,7.22756 0.57552,0.63805 0.68182,0.91774 0.68182,1.79393 0,1.00592 -0.10695,1.18811 -3.45861,5.89162 -1.90223,2.66948 -3.57793,4.99954 -3.72377,5.17791 -1.01525,1.24169 -2.66615,1.39373 -4.24708,0.39113 z m -28.32578,-4.49165 c -0.46154,-0.16961 -0.85936,-0.30981 -0.88405,-0.31154 -0.0247,-0.002 -0.2843,-0.3555 -0.57692,-0.78613 l -0.53204,-0.78296 0,-6.4061 0,-6.4061 0.51166,-0.75298 c 0.96663,-1.42252 1.23202,-1.46754 8.24496,-1.39871 8.7811,0.0862 8.23639,-0.48209 8.23639,8.59277 0,6.89468 -0.0555,7.19349 -1.49226,8.04194 -0.6598,0.38962 -1.13748,0.4231 -6.68956,0.46889 -4.83279,0.0399 -6.1399,-0.01 -6.81818,-0.25908 z"
         style="fill:#4f7194" />
      <path
         id="path4207"
         d="m 264.50696,354.28331 c -0.82283,-0.16203 -1.77099,-1.43056 -2.5766,-3.44717 -0.43246,-1.08255 -1.43009,-3.67891 -2.21696,-5.7697 -2.20184,-5.85053 -2.27483,-5.73164 5.24842,-8.54937 2.89219,-1.08322 5.55882,-2.03546 5.92585,-2.11607 0.88978,-0.19543 2.00982,0.19886 2.61798,0.92163 0.58141,0.69095 4.76407,11.4719 4.76407,12.27953 0,0.68674 -0.43626,1.54644 -1.08146,2.13109 -0.27058,0.24519 -2.69408,1.26938 -5.38556,2.27598 -2.69148,1.00659 -5.14603,1.96187 -5.45455,2.12284 -0.55232,0.28816 -0.9712,0.32257 -1.84119,0.15124 z m 21.83969,-20.75856 c -1.73255,-0.96353 -9.65343,-6.75987 -9.99512,-7.31422 -0.23154,-0.37564 -0.38825,-1.02397 -0.38872,-1.60816 -7.4e-4,-0.93227 0.17394,-1.22382 3.6746,-6.13308 2.3922,-3.35477 3.89006,-5.26529 4.29028,-5.47225 0.72805,-0.37649 1.94827,-0.41371 2.59009,-0.079 1.14991,0.59966 9.34279,6.51233 9.95124,7.18165 0.92576,1.01837 0.93712,2.10529 0.036,3.44053 -2.31507,3.43029 -6.84491,9.57587 -7.25755,9.84624 -0.73882,0.4841 -2.15743,0.55174 -2.9008,0.13831 z m -28.95105,-4.79672 c -0.46154,-0.16961 -0.85936,-0.30981 -0.88405,-0.31154 -0.0247,-0.002 -0.2843,-0.3555 -0.57692,-0.78613 l -0.53204,-0.78296 0,-6.4061 0,-6.4061 0.51166,-0.75298 c 0.96663,-1.42252 1.23202,-1.46754 8.24496,-1.39871 8.7811,0.0862 8.23639,-0.48209 8.23639,8.59277 0,6.89468 -0.0555,7.19349 -1.49226,8.04194 -0.6598,0.38962 -1.13748,0.4231 -6.68956,0.46889 -4.83279,0.0399 -6.1399,-0.01 -6.81818,-0.25908 z"
         style="fill:#355d85" />
      <path
         id="path4205"
         d="m 264.57598,354.28808 c -0.48363,-0.13417 -1.49883,-1.08984 -1.82165,-1.71481 -0.13932,-0.26973 -1.14242,-2.79955 -2.2291,-5.62183 -2.28866,-5.94398 -2.39245,-6.56391 -1.29397,-7.72894 0.57662,-0.61155 1.50978,-1.03187 6.04796,-2.72419 5.69643,-2.12424 6.4943,-2.2901 7.63252,-1.58664 0.80567,0.49793 0.71779,0.31281 3.17695,6.69233 2.09909,5.44542 2.28599,6.32662 1.5851,7.47366 -0.49612,0.81193 -0.53525,0.83052 -6.22158,2.95538 -2.65348,0.99154 -4.87223,1.88002 -4.93055,1.97439 -0.13749,0.22246 -1.46515,0.41397 -1.94568,0.28065 z m 22.22732,-20.73496 c -0.6436,-0.22126 -5.17288,-3.28654 -8.91362,-6.03245 -1.71084,-1.25586 -2.25052,-2.42663 -1.73889,-3.7723 0.29392,-0.77306 6.89449,-9.95087 7.49791,-10.42553 0.76231,-0.59963 1.75471,-0.73672 2.64384,-0.36522 0.99586,0.41609 9.36446,6.31391 9.9719,7.02774 0.26248,0.30846 0.5693,0.67486 0.68182,0.81422 0.27003,0.33445 0.26249,1.68933 -0.0112,2.01071 -0.11867,0.13936 -1.71457,2.37751 -3.54643,4.97367 -1.83186,2.59615 -3.56655,4.94057 -3.85485,5.20982 -0.70781,0.66102 -1.78991,0.88269 -2.73048,0.55934 z m -29.4077,-4.82509 c -0.46154,-0.16961 -0.85936,-0.30981 -0.88405,-0.31154 -0.0247,-0.002 -0.2843,-0.3555 -0.57692,-0.78613 l -0.53204,-0.78296 0,-6.4061 0,-6.4061 0.51166,-0.75298 c 0.96663,-1.42252 1.23202,-1.46754 8.24496,-1.39871 8.7811,0.0862 8.23639,-0.48209 8.23639,8.59277 0,6.89468 -0.0555,7.19349 -1.49226,8.04194 -0.6598,0.38962 -1.13748,0.4231 -6.68956,0.46889 -4.83279,0.0399 -6.1399,-0.01 -6.81818,-0.25908 z"
         style="fill:#1d4976" />
      <path
         id="path4203"
         d="m 264.63064,354.1948 c -0.28697,-0.0799 -0.42735,-0.15501 -0.31197,-0.16694 0.11539,-0.0119 -0.091,-0.2051 -0.45863,-0.42927 -0.36764,-0.22416 -0.77151,-0.60016 -0.89748,-0.83555 -0.12598,-0.23538 -1.13351,-2.76579 -2.23896,-5.62311 -1.50096,-3.87963 -2.01436,-5.45436 -2.02748,-6.21885 -0.0285,-1.65919 0.506,-2.00333 6.6715,-4.29568 2.88462,-1.07251 5.37544,-1.992 5.53516,-2.04331 0.58075,-0.18657 1.73365,0.18828 2.2884,0.74406 0.39619,0.39692 1.18389,2.1824 2.60359,5.90156 1.11954,2.93286 2.09617,5.58707 2.17029,5.89825 0.1808,0.75906 -0.23988,1.95942 -0.85677,2.44466 -0.27592,0.21705 -2.85837,1.27712 -5.73877,2.35572 -2.8804,1.0786 -5.19772,2.02479 -5.1496,2.10264 0.132,0.21359 -0.99522,0.3312 -1.58928,0.16582 z m 22.06583,-20.74871 c -0.86852,-0.36717 -9.45858,-6.52528 -10.00033,-7.1691 -0.57942,-0.68861 -0.70792,-1.95226 -0.28016,-2.75508 0.49893,-0.93637 6.66321,-9.49843 7.20219,-10.00369 0.44906,-0.42096 0.77555,-0.52447 1.65426,-0.52447 1.07215,0 1.18998,0.0665 5.69988,3.21837 4.85739,3.39469 5.74978,4.15426 5.7737,4.91431 0.0141,0.44846 0.0225,0.45058 0.19504,0.0491 0.13245,-0.30821 0.1803,-0.14116 0.1803,0.62938 0,0.77053 -0.0478,0.93758 -0.1803,0.62937 -0.17682,-0.41148 -0.18058,-0.41108 -0.19504,0.0207 -0.0156,0.4659 -6.51871,9.70473 -7.41789,10.53843 -0.59193,0.54883 -1.88004,0.77038 -2.63165,0.45263 z m -29.30087,-4.71806 c -0.46154,-0.16961 -0.85936,-0.30981 -0.88405,-0.31154 -0.0247,-0.002 -0.2843,-0.3555 -0.57692,-0.78613 l -0.53204,-0.78296 0,-6.4061 0,-6.4061 0.51166,-0.75298 c 0.96663,-1.42252 1.23202,-1.46754 8.24496,-1.39871 8.7811,0.0862 8.23639,-0.48209 8.23639,8.59277 0,6.89468 -0.0555,7.19349 -1.49226,8.04194 -0.6598,0.38962 -1.13748,0.4231 -6.68956,0.46889 -4.83279,0.0399 -6.1399,-0.01 -6.81818,-0.25908 z"
         style="fill:#cb0303" />
      <path
         id="path4201"
         d="m 264.63064,354.1948 c -0.28697,-0.0799 -0.42735,-0.15501 -0.31197,-0.16694 0.11539,-0.0119 -0.091,-0.2051 -0.45863,-0.42927 -0.36764,-0.22416 -0.77151,-0.60016 -0.89748,-0.83555 -0.12598,-0.23538 -1.13351,-2.76579 -2.23896,-5.62311 -1.50096,-3.87963 -2.01436,-5.45436 -2.02748,-6.21885 -0.0285,-1.65919 0.506,-2.00333 6.6715,-4.29568 2.88462,-1.07251 5.37544,-1.992 5.53516,-2.04331 0.58075,-0.18657 1.73365,0.18828 2.2884,0.74406 0.39619,0.39692 1.18389,2.1824 2.60359,5.90156 1.11954,2.93286 2.09617,5.58707 2.17029,5.89825 0.1808,0.75906 -0.23988,1.95942 -0.85677,2.44466 -0.27592,0.21705 -2.85837,1.27712 -5.73877,2.35572 -2.8804,1.0786 -5.19772,2.02479 -5.1496,2.10264 0.132,0.21359 -0.99522,0.3312 -1.58928,0.16582 z m 22.06583,-20.74871 c -0.86852,-0.36717 -9.45858,-6.52528 -10.00033,-7.1691 -0.57942,-0.68861 -0.70792,-1.95226 -0.28016,-2.75508 0.49893,-0.93637 6.66321,-9.49843 7.20219,-10.00369 0.44906,-0.42096 0.77555,-0.52447 1.65426,-0.52447 1.07215,0 1.18998,0.0665 5.69988,3.21837 4.85739,3.39469 5.74978,4.15426 5.7737,4.91431 0.0141,0.44846 0.0225,0.45058 0.19504,0.0491 0.13245,-0.30821 0.1803,-0.14116 0.1803,0.62938 0,0.77053 -0.0478,0.93758 -0.1803,0.62937 -0.17682,-0.41148 -0.18058,-0.41108 -0.19504,0.0207 -0.0156,0.4659 -6.51871,9.70473 -7.41789,10.53843 -0.59193,0.54883 -1.88004,0.77038 -2.63165,0.45263 z"
         style="fill:#003265" />
    </g>
  </g>
</svg>
